<mxfile host="app.diagrams.net" agent="Mozilla/5.0 (Windows NT 10.0; Win64; x64) AppleWebKit/537.36 (KHTML, like Gecko) Chrome/134.0.0.0 Safari/537.36 OPR/119.0.0.0 (Edition std-2)" version="27.1.5">
  <diagram name="Page-1" id="ZZryoT1HC9bYrFOV-x_Y">
    <mxGraphModel dx="2456" dy="889" grid="1" gridSize="10" guides="1" tooltips="1" connect="1" arrows="1" fold="1" page="1" pageScale="1" pageWidth="827" pageHeight="1169" math="0" shadow="0">
      <root>
        <mxCell id="0" />
        <mxCell id="1" parent="0" />
        <mxCell id="qsZlWb2w2ooprA0qHy_H-1" value="&lt;div&gt;ALUNO&lt;/div&gt;" style="whiteSpace=wrap;html=1;align=center;" vertex="1" parent="1">
          <mxGeometry x="720" y="440" width="100" height="40" as="geometry" />
        </mxCell>
        <mxCell id="qsZlWb2w2ooprA0qHy_H-2" value="&lt;u&gt;E-mail&lt;/u&gt;" style="ellipse;whiteSpace=wrap;html=1;align=center;" vertex="1" parent="1">
          <mxGeometry x="570" y="480" width="100" height="40" as="geometry" />
        </mxCell>
        <mxCell id="qsZlWb2w2ooprA0qHy_H-3" value="Data Nascimento" style="ellipse;whiteSpace=wrap;html=1;align=center;" vertex="1" parent="1">
          <mxGeometry x="830" y="580" width="100" height="40" as="geometry" />
        </mxCell>
        <mxCell id="qsZlWb2w2ooprA0qHy_H-4" value="Plano" style="ellipse;whiteSpace=wrap;html=1;align=center;" vertex="1" parent="1">
          <mxGeometry x="850" y="530" width="100" height="40" as="geometry" />
        </mxCell>
        <mxCell id="qsZlWb2w2ooprA0qHy_H-5" value="" style="endArrow=none;html=1;rounded=0;" edge="1" parent="1" source="qsZlWb2w2ooprA0qHy_H-61" target="qsZlWb2w2ooprA0qHy_H-1">
          <mxGeometry relative="1" as="geometry">
            <mxPoint x="910" y="520.0000000000001" as="sourcePoint" />
            <mxPoint x="1140" y="519.5" as="targetPoint" />
          </mxGeometry>
        </mxCell>
        <mxCell id="qsZlWb2w2ooprA0qHy_H-6" value="" style="endArrow=none;html=1;rounded=0;" edge="1" parent="1" source="qsZlWb2w2ooprA0qHy_H-2" target="qsZlWb2w2ooprA0qHy_H-1">
          <mxGeometry relative="1" as="geometry">
            <mxPoint x="900" y="470" as="sourcePoint" />
            <mxPoint x="920" y="470" as="targetPoint" />
          </mxGeometry>
        </mxCell>
        <mxCell id="qsZlWb2w2ooprA0qHy_H-7" value="ESTUDA" style="shape=rhombus;perimeter=rhombusPerimeter;whiteSpace=wrap;html=1;align=center;" vertex="1" parent="1">
          <mxGeometry x="710" y="290" width="120" height="60" as="geometry" />
        </mxCell>
        <mxCell id="qsZlWb2w2ooprA0qHy_H-8" value="" style="endArrow=none;html=1;rounded=0;" edge="1" parent="1" source="qsZlWb2w2ooprA0qHy_H-7" target="qsZlWb2w2ooprA0qHy_H-1">
          <mxGeometry relative="1" as="geometry">
            <mxPoint x="910" y="530" as="sourcePoint" />
            <mxPoint x="1070" y="530" as="targetPoint" />
          </mxGeometry>
        </mxCell>
        <mxCell id="qsZlWb2w2ooprA0qHy_H-10" value="CURSO" style="whiteSpace=wrap;html=1;align=center;" vertex="1" parent="1">
          <mxGeometry x="720" y="130" width="100" height="40" as="geometry" />
        </mxCell>
        <mxCell id="qsZlWb2w2ooprA0qHy_H-11" value="Nome" style="ellipse;whiteSpace=wrap;html=1;align=center;fontStyle=4;" vertex="1" parent="1">
          <mxGeometry x="660" y="40" width="100" height="40" as="geometry" />
        </mxCell>
        <mxCell id="qsZlWb2w2ooprA0qHy_H-12" value="Descrição" style="ellipse;whiteSpace=wrap;html=1;align=center;" vertex="1" parent="1">
          <mxGeometry x="590" y="80" width="100" height="40" as="geometry" />
        </mxCell>
        <mxCell id="qsZlWb2w2ooprA0qHy_H-13" value="Nível" style="ellipse;whiteSpace=wrap;html=1;align=center;" vertex="1" parent="1">
          <mxGeometry x="780" y="40" width="100" height="40" as="geometry" />
        </mxCell>
        <mxCell id="qsZlWb2w2ooprA0qHy_H-14" value="Data de Lançamento" style="ellipse;whiteSpace=wrap;html=1;align=center;" vertex="1" parent="1">
          <mxGeometry x="780" y="190" width="100" height="40" as="geometry" />
        </mxCell>
        <mxCell id="qsZlWb2w2ooprA0qHy_H-15" value="Duração" style="ellipse;whiteSpace=wrap;html=1;align=center;" vertex="1" parent="1">
          <mxGeometry x="850" y="80" width="100" height="40" as="geometry" />
        </mxCell>
        <mxCell id="qsZlWb2w2ooprA0qHy_H-16" value="" style="endArrow=none;html=1;rounded=0;" edge="1" parent="1" source="qsZlWb2w2ooprA0qHy_H-11" target="qsZlWb2w2ooprA0qHy_H-10">
          <mxGeometry relative="1" as="geometry">
            <mxPoint x="420" y="410" as="sourcePoint" />
            <mxPoint x="580" y="410" as="targetPoint" />
          </mxGeometry>
        </mxCell>
        <mxCell id="qsZlWb2w2ooprA0qHy_H-17" value="" style="endArrow=none;html=1;rounded=0;entryX=0.16;entryY=0;entryDx=0;entryDy=0;entryPerimeter=0;" edge="1" parent="1" source="qsZlWb2w2ooprA0qHy_H-12" target="qsZlWb2w2ooprA0qHy_H-10">
          <mxGeometry relative="1" as="geometry">
            <mxPoint x="482" y="432" as="sourcePoint" />
            <mxPoint x="514" y="450" as="targetPoint" />
          </mxGeometry>
        </mxCell>
        <mxCell id="qsZlWb2w2ooprA0qHy_H-18" value="" style="endArrow=none;html=1;rounded=0;" edge="1" parent="1" source="qsZlWb2w2ooprA0qHy_H-13" target="qsZlWb2w2ooprA0qHy_H-10">
          <mxGeometry relative="1" as="geometry">
            <mxPoint x="492" y="442" as="sourcePoint" />
            <mxPoint x="524" y="460" as="targetPoint" />
          </mxGeometry>
        </mxCell>
        <mxCell id="qsZlWb2w2ooprA0qHy_H-19" value="" style="endArrow=none;html=1;rounded=0;" edge="1" parent="1" target="qsZlWb2w2ooprA0qHy_H-15">
          <mxGeometry relative="1" as="geometry">
            <mxPoint x="810" y="130" as="sourcePoint" />
            <mxPoint x="534" y="470" as="targetPoint" />
          </mxGeometry>
        </mxCell>
        <mxCell id="qsZlWb2w2ooprA0qHy_H-20" value="MINISTRA" style="shape=rhombus;perimeter=rhombusPerimeter;whiteSpace=wrap;html=1;align=center;" vertex="1" parent="1">
          <mxGeometry x="1020" y="120" width="120" height="60" as="geometry" />
        </mxCell>
        <mxCell id="qsZlWb2w2ooprA0qHy_H-21" value="" style="endArrow=none;html=1;rounded=0;" edge="1" parent="1" source="qsZlWb2w2ooprA0qHy_H-20" target="qsZlWb2w2ooprA0qHy_H-10">
          <mxGeometry relative="1" as="geometry">
            <mxPoint x="750" y="410" as="sourcePoint" />
            <mxPoint x="910" y="410" as="targetPoint" />
          </mxGeometry>
        </mxCell>
        <mxCell id="qsZlWb2w2ooprA0qHy_H-22" value="(1,N)" style="resizable=0;html=1;whiteSpace=wrap;align=right;verticalAlign=bottom;" connectable="0" vertex="1" parent="qsZlWb2w2ooprA0qHy_H-21">
          <mxGeometry x="1" relative="1" as="geometry">
            <mxPoint x="180" as="offset" />
          </mxGeometry>
        </mxCell>
        <mxCell id="qsZlWb2w2ooprA0qHy_H-23" value="PROFESSOR" style="whiteSpace=wrap;html=1;align=center;" vertex="1" parent="1">
          <mxGeometry x="1310" y="130" width="100" height="40" as="geometry" />
        </mxCell>
        <mxCell id="qsZlWb2w2ooprA0qHy_H-24" value="" style="endArrow=none;html=1;rounded=0;entryX=0;entryY=0.5;entryDx=0;entryDy=0;exitX=1;exitY=0.5;exitDx=0;exitDy=0;" edge="1" parent="1" source="qsZlWb2w2ooprA0qHy_H-20" target="qsZlWb2w2ooprA0qHy_H-23">
          <mxGeometry relative="1" as="geometry">
            <mxPoint x="880" y="410" as="sourcePoint" />
            <mxPoint x="1040" y="410" as="targetPoint" />
          </mxGeometry>
        </mxCell>
        <mxCell id="qsZlWb2w2ooprA0qHy_H-25" value="(1,N)" style="resizable=0;html=1;whiteSpace=wrap;align=right;verticalAlign=bottom;" connectable="0" vertex="1" parent="qsZlWb2w2ooprA0qHy_H-24">
          <mxGeometry x="1" relative="1" as="geometry">
            <mxPoint x="-121" as="offset" />
          </mxGeometry>
        </mxCell>
        <mxCell id="qsZlWb2w2ooprA0qHy_H-26" value="Nome" style="ellipse;whiteSpace=wrap;html=1;align=center;fontStyle=0;" vertex="1" parent="1">
          <mxGeometry x="1470" y="130" width="100" height="40" as="geometry" />
        </mxCell>
        <mxCell id="qsZlWb2w2ooprA0qHy_H-27" value="Especialização" style="ellipse;whiteSpace=wrap;html=1;align=center;" vertex="1" parent="1">
          <mxGeometry x="1310" y="230" width="100" height="40" as="geometry" />
        </mxCell>
        <mxCell id="qsZlWb2w2ooprA0qHy_H-28" value="&lt;u&gt;E-mail&lt;/u&gt;" style="ellipse;whiteSpace=wrap;html=1;align=center;" vertex="1" parent="1">
          <mxGeometry x="1310" y="30" width="100" height="40" as="geometry" />
        </mxCell>
        <mxCell id="qsZlWb2w2ooprA0qHy_H-29" value="" style="endArrow=none;html=1;rounded=0;" edge="1" parent="1" source="qsZlWb2w2ooprA0qHy_H-28" target="qsZlWb2w2ooprA0qHy_H-23">
          <mxGeometry relative="1" as="geometry">
            <mxPoint x="1020" y="430" as="sourcePoint" />
            <mxPoint x="1140" y="460" as="targetPoint" />
          </mxGeometry>
        </mxCell>
        <mxCell id="qsZlWb2w2ooprA0qHy_H-30" value="" style="endArrow=none;html=1;rounded=0;" edge="1" parent="1" source="qsZlWb2w2ooprA0qHy_H-23" target="qsZlWb2w2ooprA0qHy_H-27">
          <mxGeometry relative="1" as="geometry">
            <mxPoint x="1030" y="440" as="sourcePoint" />
            <mxPoint x="1095" y="470" as="targetPoint" />
          </mxGeometry>
        </mxCell>
        <mxCell id="qsZlWb2w2ooprA0qHy_H-31" value="" style="endArrow=none;html=1;rounded=0;entryX=0.5;entryY=0;entryDx=0;entryDy=0;" edge="1" parent="1" source="qsZlWb2w2ooprA0qHy_H-71" target="qsZlWb2w2ooprA0qHy_H-34">
          <mxGeometry relative="1" as="geometry">
            <mxPoint x="770" y="330" as="sourcePoint" />
            <mxPoint x="770" y="429.9999999999998" as="targetPoint" />
          </mxGeometry>
        </mxCell>
        <mxCell id="qsZlWb2w2ooprA0qHy_H-32" value="" style="endArrow=none;html=1;rounded=0;" edge="1" parent="1" source="qsZlWb2w2ooprA0qHy_H-71" target="qsZlWb2w2ooprA0qHy_H-10">
          <mxGeometry relative="1" as="geometry">
            <mxPoint x="770" y="270" as="sourcePoint" />
            <mxPoint x="610" y="610" as="targetPoint" />
          </mxGeometry>
        </mxCell>
        <mxCell id="qsZlWb2w2ooprA0qHy_H-34" value="AULA" style="whiteSpace=wrap;html=1;align=center;" vertex="1" parent="1">
          <mxGeometry x="1310" y="440" width="100" height="40" as="geometry" />
        </mxCell>
        <mxCell id="qsZlWb2w2ooprA0qHy_H-35" value="Ordem no Curso" style="ellipse;whiteSpace=wrap;html=1;align=center;" vertex="1" parent="1">
          <mxGeometry x="1470" y="390" width="100" height="40" as="geometry" />
        </mxCell>
        <mxCell id="qsZlWb2w2ooprA0qHy_H-36" value="Tipo (vídeo ou texto)" style="ellipse;whiteSpace=wrap;html=1;align=center;" vertex="1" parent="1">
          <mxGeometry x="1470" y="490" width="100" height="40" as="geometry" />
        </mxCell>
        <mxCell id="qsZlWb2w2ooprA0qHy_H-37" value="Descrição" style="ellipse;whiteSpace=wrap;html=1;align=center;" vertex="1" parent="1">
          <mxGeometry x="1470" y="545" width="100" height="40" as="geometry" />
        </mxCell>
        <mxCell id="qsZlWb2w2ooprA0qHy_H-38" value="Duração" style="ellipse;whiteSpace=wrap;html=1;align=center;" vertex="1" parent="1">
          <mxGeometry x="1470" y="340" width="100" height="40" as="geometry" />
        </mxCell>
        <mxCell id="qsZlWb2w2ooprA0qHy_H-39" value="" style="endArrow=none;html=1;rounded=0;entryX=0.75;entryY=1;entryDx=0;entryDy=0;exitX=0;exitY=0.5;exitDx=0;exitDy=0;" edge="1" parent="1" source="qsZlWb2w2ooprA0qHy_H-37" target="qsZlWb2w2ooprA0qHy_H-34">
          <mxGeometry relative="1" as="geometry">
            <mxPoint x="1030" y="490" as="sourcePoint" />
            <mxPoint x="1190" y="490" as="targetPoint" />
          </mxGeometry>
        </mxCell>
        <mxCell id="qsZlWb2w2ooprA0qHy_H-40" value="" style="endArrow=none;html=1;rounded=0;entryX=0.834;entryY=-0.049;entryDx=0;entryDy=0;exitX=0;exitY=0.5;exitDx=0;exitDy=0;entryPerimeter=0;" edge="1" parent="1" source="qsZlWb2w2ooprA0qHy_H-38" target="qsZlWb2w2ooprA0qHy_H-34">
          <mxGeometry relative="1" as="geometry">
            <mxPoint x="1060" y="680" as="sourcePoint" />
            <mxPoint x="1105" y="700" as="targetPoint" />
          </mxGeometry>
        </mxCell>
        <mxCell id="qsZlWb2w2ooprA0qHy_H-41" value="" style="endArrow=none;html=1;rounded=0;exitX=1;exitY=0.75;exitDx=0;exitDy=0;entryX=0;entryY=0.5;entryDx=0;entryDy=0;" edge="1" parent="1" source="qsZlWb2w2ooprA0qHy_H-34" target="qsZlWb2w2ooprA0qHy_H-36">
          <mxGeometry relative="1" as="geometry">
            <mxPoint x="1070" y="690" as="sourcePoint" />
            <mxPoint x="1115" y="710" as="targetPoint" />
          </mxGeometry>
        </mxCell>
        <mxCell id="qsZlWb2w2ooprA0qHy_H-42" value="" style="endArrow=none;html=1;rounded=0;exitX=1;exitY=0.25;exitDx=0;exitDy=0;entryX=0;entryY=0.5;entryDx=0;entryDy=0;" edge="1" parent="1" source="qsZlWb2w2ooprA0qHy_H-34" target="qsZlWb2w2ooprA0qHy_H-35">
          <mxGeometry relative="1" as="geometry">
            <mxPoint x="1090" y="710" as="sourcePoint" />
            <mxPoint x="1135" y="730" as="targetPoint" />
          </mxGeometry>
        </mxCell>
        <mxCell id="qsZlWb2w2ooprA0qHy_H-43" value="Nome" style="ellipse;whiteSpace=wrap;html=1;align=center;fontStyle=4;" vertex="1" parent="1">
          <mxGeometry x="1470" y="440" width="100" height="40" as="geometry" />
        </mxCell>
        <mxCell id="qsZlWb2w2ooprA0qHy_H-44" value="EMPRESA" style="whiteSpace=wrap;html=1;align=center;" vertex="1" parent="1">
          <mxGeometry x="-10" y="770" width="100" height="40" as="geometry" />
        </mxCell>
        <mxCell id="qsZlWb2w2ooprA0qHy_H-45" value="Nome" style="ellipse;whiteSpace=wrap;html=1;align=center;fontStyle=4;" vertex="1" parent="1">
          <mxGeometry x="-130" y="820" width="100" height="40" as="geometry" />
        </mxCell>
        <mxCell id="qsZlWb2w2ooprA0qHy_H-46" value="Setor" style="ellipse;whiteSpace=wrap;html=1;align=center;" vertex="1" parent="1">
          <mxGeometry x="50" y="870" width="100" height="40" as="geometry" />
        </mxCell>
        <mxCell id="qsZlWb2w2ooprA0qHy_H-47" value="Localização" style="ellipse;whiteSpace=wrap;html=1;align=center;" vertex="1" parent="1">
          <mxGeometry x="-70" y="870" width="100" height="40" as="geometry" />
        </mxCell>
        <mxCell id="qsZlWb2w2ooprA0qHy_H-48" value="VAGA" style="whiteSpace=wrap;html=1;align=center;" vertex="1" parent="1">
          <mxGeometry x="-10" y="440" width="100" height="40" as="geometry" />
        </mxCell>
        <mxCell id="qsZlWb2w2ooprA0qHy_H-49" value="" style="endArrow=none;html=1;rounded=0;" edge="1" parent="1" source="qsZlWb2w2ooprA0qHy_H-76" target="qsZlWb2w2ooprA0qHy_H-44">
          <mxGeometry relative="1" as="geometry">
            <mxPoint x="250" y="650" as="sourcePoint" />
            <mxPoint x="205" y="630" as="targetPoint" />
          </mxGeometry>
        </mxCell>
        <mxCell id="qsZlWb2w2ooprA0qHy_H-50" value="(1,N)" style="resizable=0;html=1;whiteSpace=wrap;align=right;verticalAlign=bottom;" connectable="0" vertex="1" parent="qsZlWb2w2ooprA0qHy_H-49">
          <mxGeometry x="1" relative="1" as="geometry">
            <mxPoint y="-60" as="offset" />
          </mxGeometry>
        </mxCell>
        <mxCell id="qsZlWb2w2ooprA0qHy_H-51" value="" style="endArrow=none;html=1;rounded=0;" edge="1" parent="1" source="qsZlWb2w2ooprA0qHy_H-76" target="qsZlWb2w2ooprA0qHy_H-48">
          <mxGeometry relative="1" as="geometry">
            <mxPoint x="250" y="590" as="sourcePoint" />
            <mxPoint x="-60" y="590" as="targetPoint" />
          </mxGeometry>
        </mxCell>
        <mxCell id="qsZlWb2w2ooprA0qHy_H-52" value="(1,1)" style="resizable=0;html=1;whiteSpace=wrap;align=right;verticalAlign=bottom;" connectable="0" vertex="1" parent="qsZlWb2w2ooprA0qHy_H-51">
          <mxGeometry x="1" relative="1" as="geometry">
            <mxPoint x="-10" y="130" as="offset" />
          </mxGeometry>
        </mxCell>
        <mxCell id="qsZlWb2w2ooprA0qHy_H-53" value="" style="endArrow=none;html=1;rounded=0;" edge="1" parent="1" source="qsZlWb2w2ooprA0qHy_H-44" target="qsZlWb2w2ooprA0qHy_H-45">
          <mxGeometry relative="1" as="geometry">
            <mxPoint x="144.64" y="670" as="sourcePoint" />
            <mxPoint x="139.99533905932742" y="835.8578643762692" as="targetPoint" />
          </mxGeometry>
        </mxCell>
        <mxCell id="qsZlWb2w2ooprA0qHy_H-54" value="Nome" style="ellipse;whiteSpace=wrap;html=1;align=center;" vertex="1" parent="1">
          <mxGeometry x="-100" y="360" width="100" height="40" as="geometry" />
        </mxCell>
        <mxCell id="qsZlWb2w2ooprA0qHy_H-55" value="SE INSCREVE" style="shape=rhombus;perimeter=rhombusPerimeter;whiteSpace=wrap;html=1;align=center;" vertex="1" parent="1">
          <mxGeometry x="310" y="430" width="120" height="60" as="geometry" />
        </mxCell>
        <mxCell id="qsZlWb2w2ooprA0qHy_H-56" value="" style="endArrow=none;html=1;rounded=0;entryX=1;entryY=1;entryDx=0;entryDy=0;" edge="1" parent="1" source="qsZlWb2w2ooprA0qHy_H-48" target="qsZlWb2w2ooprA0qHy_H-54">
          <mxGeometry relative="1" as="geometry">
            <mxPoint x="215" y="510" as="sourcePoint" />
            <mxPoint x="260" y="500" as="targetPoint" />
          </mxGeometry>
        </mxCell>
        <mxCell id="qsZlWb2w2ooprA0qHy_H-57" value="" style="endArrow=none;html=1;rounded=0;" edge="1" parent="1" source="qsZlWb2w2ooprA0qHy_H-55" target="qsZlWb2w2ooprA0qHy_H-1">
          <mxGeometry relative="1" as="geometry">
            <mxPoint x="900" y="740" as="sourcePoint" />
            <mxPoint x="1060" y="740" as="targetPoint" />
          </mxGeometry>
        </mxCell>
        <mxCell id="qsZlWb2w2ooprA0qHy_H-59" value="" style="endArrow=none;html=1;rounded=0;" edge="1" parent="1" source="qsZlWb2w2ooprA0qHy_H-55" target="qsZlWb2w2ooprA0qHy_H-48">
          <mxGeometry relative="1" as="geometry">
            <mxPoint x="147" y="290" as="sourcePoint" />
            <mxPoint x="330" y="420" as="targetPoint" />
          </mxGeometry>
        </mxCell>
        <mxCell id="qsZlWb2w2ooprA0qHy_H-61" value="Nome" style="ellipse;whiteSpace=wrap;html=1;align=center;fontStyle=0;" vertex="1" parent="1">
          <mxGeometry x="620" y="580" width="100" height="40" as="geometry" />
        </mxCell>
        <mxCell id="qsZlWb2w2ooprA0qHy_H-62" value="" style="endArrow=none;html=1;rounded=0;entryX=0.287;entryY=0.054;entryDx=0;entryDy=0;entryPerimeter=0;" edge="1" parent="1" source="qsZlWb2w2ooprA0qHy_H-10" target="qsZlWb2w2ooprA0qHy_H-14">
          <mxGeometry width="50" height="50" relative="1" as="geometry">
            <mxPoint x="890" y="330" as="sourcePoint" />
            <mxPoint x="940" y="280" as="targetPoint" />
          </mxGeometry>
        </mxCell>
        <mxCell id="qsZlWb2w2ooprA0qHy_H-63" value="" style="endArrow=none;html=1;rounded=0;" edge="1" parent="1" source="qsZlWb2w2ooprA0qHy_H-7" target="qsZlWb2w2ooprA0qHy_H-10">
          <mxGeometry width="50" height="50" relative="1" as="geometry">
            <mxPoint x="890" y="330" as="sourcePoint" />
            <mxPoint x="940" y="280" as="targetPoint" />
          </mxGeometry>
        </mxCell>
        <mxCell id="qsZlWb2w2ooprA0qHy_H-64" value="" style="endArrow=none;html=1;rounded=0;" edge="1" parent="1" source="qsZlWb2w2ooprA0qHy_H-23" target="qsZlWb2w2ooprA0qHy_H-26">
          <mxGeometry width="50" height="50" relative="1" as="geometry">
            <mxPoint x="1270" y="360" as="sourcePoint" />
            <mxPoint x="1320" y="310" as="targetPoint" />
          </mxGeometry>
        </mxCell>
        <mxCell id="qsZlWb2w2ooprA0qHy_H-65" value="" style="endArrow=none;html=1;rounded=0;" edge="1" parent="1" source="qsZlWb2w2ooprA0qHy_H-34" target="qsZlWb2w2ooprA0qHy_H-43">
          <mxGeometry width="50" height="50" relative="1" as="geometry">
            <mxPoint x="1520" y="320" as="sourcePoint" />
            <mxPoint x="1570" y="270" as="targetPoint" />
          </mxGeometry>
        </mxCell>
        <mxCell id="qsZlWb2w2ooprA0qHy_H-66" value="" style="endArrow=none;html=1;rounded=0;exitX=0;exitY=0;exitDx=0;exitDy=0;" edge="1" parent="1" source="qsZlWb2w2ooprA0qHy_H-3" target="qsZlWb2w2ooprA0qHy_H-1">
          <mxGeometry width="50" height="50" relative="1" as="geometry">
            <mxPoint x="1130" y="510" as="sourcePoint" />
            <mxPoint x="1180" y="460" as="targetPoint" />
          </mxGeometry>
        </mxCell>
        <mxCell id="qsZlWb2w2ooprA0qHy_H-67" value="" style="endArrow=none;html=1;rounded=0;" edge="1" parent="1" source="qsZlWb2w2ooprA0qHy_H-47" target="qsZlWb2w2ooprA0qHy_H-44">
          <mxGeometry width="50" height="50" relative="1" as="geometry">
            <mxPoint x="210" y="905" as="sourcePoint" />
            <mxPoint x="260" y="855" as="targetPoint" />
          </mxGeometry>
        </mxCell>
        <mxCell id="qsZlWb2w2ooprA0qHy_H-68" value="" style="endArrow=none;html=1;rounded=0;" edge="1" parent="1" source="qsZlWb2w2ooprA0qHy_H-44" target="qsZlWb2w2ooprA0qHy_H-46">
          <mxGeometry width="50" height="50" relative="1" as="geometry">
            <mxPoint x="380" y="720" as="sourcePoint" />
            <mxPoint x="430" y="670" as="targetPoint" />
          </mxGeometry>
        </mxCell>
        <mxCell id="qsZlWb2w2ooprA0qHy_H-69" value="&amp;nbsp;" style="text;whiteSpace=wrap;html=1;" vertex="1" parent="1">
          <mxGeometry x="1010" y="410" width="40" height="40" as="geometry" />
        </mxCell>
        <mxCell id="qsZlWb2w2ooprA0qHy_H-70" value="&lt;div&gt;(1,N)&lt;/div&gt;" style="resizable=0;html=1;whiteSpace=wrap;align=right;verticalAlign=bottom;rotation=0;" connectable="0" vertex="1" parent="1">
          <mxGeometry x="479.9999999999998" y="140" as="geometry">
            <mxPoint x="5.07271519359962" y="10.544243920620543" as="offset" />
          </mxGeometry>
        </mxCell>
        <mxCell id="qsZlWb2w2ooprA0qHy_H-71" value="CONTÉM" style="shape=rhombus;perimeter=rhombusPerimeter;whiteSpace=wrap;html=1;align=center;" vertex="1" parent="1">
          <mxGeometry x="1100" y="260" width="120" height="60" as="geometry" />
        </mxCell>
        <mxCell id="qsZlWb2w2ooprA0qHy_H-72" value="Data Conclusão" style="ellipse;whiteSpace=wrap;html=1;align=center;" vertex="1" parent="1">
          <mxGeometry x="560" y="300" width="100" height="40" as="geometry" />
        </mxCell>
        <mxCell id="qsZlWb2w2ooprA0qHy_H-73" value="Nota" style="ellipse;whiteSpace=wrap;html=1;align=center;" vertex="1" parent="1">
          <mxGeometry x="870" y="300" width="100" height="40" as="geometry" />
        </mxCell>
        <mxCell id="qsZlWb2w2ooprA0qHy_H-74" value="" style="endArrow=none;html=1;rounded=0;" edge="1" parent="1" source="qsZlWb2w2ooprA0qHy_H-72" target="qsZlWb2w2ooprA0qHy_H-7">
          <mxGeometry width="50" height="50" relative="1" as="geometry">
            <mxPoint x="990" y="440" as="sourcePoint" />
            <mxPoint x="858" y="419" as="targetPoint" />
          </mxGeometry>
        </mxCell>
        <mxCell id="qsZlWb2w2ooprA0qHy_H-75" value="" style="endArrow=none;html=1;rounded=0;" edge="1" parent="1" source="qsZlWb2w2ooprA0qHy_H-73" target="qsZlWb2w2ooprA0qHy_H-7">
          <mxGeometry width="50" height="50" relative="1" as="geometry">
            <mxPoint x="843" y="470" as="sourcePoint" />
            <mxPoint x="868" y="429" as="targetPoint" />
          </mxGeometry>
        </mxCell>
        <mxCell id="qsZlWb2w2ooprA0qHy_H-76" value="OFERECE" style="shape=rhombus;perimeter=rhombusPerimeter;whiteSpace=wrap;html=1;align=center;" vertex="1" parent="1">
          <mxGeometry x="-20" y="620" width="120" height="60" as="geometry" />
        </mxCell>
        <mxCell id="qsZlWb2w2ooprA0qHy_H-77" value="" style="endArrow=none;html=1;rounded=0;exitX=0;exitY=0;exitDx=0;exitDy=0;" edge="1" parent="1" source="qsZlWb2w2ooprA0qHy_H-4" target="qsZlWb2w2ooprA0qHy_H-1">
          <mxGeometry width="50" height="50" relative="1" as="geometry">
            <mxPoint x="905" y="444" as="sourcePoint" />
            <mxPoint x="942" y="460" as="targetPoint" />
          </mxGeometry>
        </mxCell>
        <mxCell id="qsZlWb2w2ooprA0qHy_H-78" value="Descrição" style="ellipse;whiteSpace=wrap;html=1;align=center;" vertex="1" parent="1">
          <mxGeometry x="-170" y="400" width="100" height="40" as="geometry" />
        </mxCell>
        <mxCell id="qsZlWb2w2ooprA0qHy_H-79" value="&lt;u&gt;ID&lt;/u&gt;" style="ellipse;whiteSpace=wrap;html=1;align=center;" vertex="1" parent="1">
          <mxGeometry x="-100" y="545" width="100" height="40" as="geometry" />
        </mxCell>
        <mxCell id="qsZlWb2w2ooprA0qHy_H-80" value="" style="endArrow=none;html=1;rounded=0;exitX=1;exitY=0;exitDx=0;exitDy=0;entryX=0.25;entryY=1;entryDx=0;entryDy=0;" edge="1" parent="1" source="qsZlWb2w2ooprA0qHy_H-79" target="qsZlWb2w2ooprA0qHy_H-48">
          <mxGeometry relative="1" as="geometry">
            <mxPoint x="149" y="433" as="sourcePoint" />
            <mxPoint x="210" y="453" as="targetPoint" />
          </mxGeometry>
        </mxCell>
        <mxCell id="qsZlWb2w2ooprA0qHy_H-81" value="HABILIDADE" style="whiteSpace=wrap;html=1;align=center;" vertex="1" parent="1">
          <mxGeometry x="-10" y="130" width="100" height="40" as="geometry" />
        </mxCell>
        <mxCell id="qsZlWb2w2ooprA0qHy_H-82" value="Nome" style="ellipse;whiteSpace=wrap;html=1;align=center;" vertex="1" parent="1">
          <mxGeometry x="100" y="70" width="100" height="40" as="geometry" />
        </mxCell>
        <mxCell id="qsZlWb2w2ooprA0qHy_H-83" value="Nível" style="ellipse;whiteSpace=wrap;html=1;align=center;" vertex="1" parent="1">
          <mxGeometry x="-10" y="70" width="100" height="40" as="geometry" />
        </mxCell>
        <mxCell id="qsZlWb2w2ooprA0qHy_H-84" value="&lt;u&gt;ID&lt;/u&gt;" style="ellipse;whiteSpace=wrap;html=1;align=center;" vertex="1" parent="1">
          <mxGeometry x="-120" y="70" width="100" height="40" as="geometry" />
        </mxCell>
        <mxCell id="qsZlWb2w2ooprA0qHy_H-85" value="" style="endArrow=none;html=1;rounded=0;entryX=0.5;entryY=1;entryDx=0;entryDy=0;" edge="1" parent="1" source="qsZlWb2w2ooprA0qHy_H-81" target="qsZlWb2w2ooprA0qHy_H-83">
          <mxGeometry relative="1" as="geometry">
            <mxPoint x="-195" y="150" as="sourcePoint" />
            <mxPoint x="-115" y="176" as="targetPoint" />
          </mxGeometry>
        </mxCell>
        <mxCell id="qsZlWb2w2ooprA0qHy_H-86" value="" style="endArrow=none;html=1;rounded=0;entryX=1;entryY=1;entryDx=0;entryDy=0;exitX=0.25;exitY=0;exitDx=0;exitDy=0;" edge="1" parent="1" source="qsZlWb2w2ooprA0qHy_H-81" target="qsZlWb2w2ooprA0qHy_H-84">
          <mxGeometry relative="1" as="geometry">
            <mxPoint x="160" y="70" as="sourcePoint" />
            <mxPoint x="160" y="30" as="targetPoint" />
          </mxGeometry>
        </mxCell>
        <mxCell id="qsZlWb2w2ooprA0qHy_H-87" value="" style="endArrow=none;html=1;rounded=0;entryX=0;entryY=1;entryDx=0;entryDy=0;exitX=0.75;exitY=0;exitDx=0;exitDy=0;" edge="1" parent="1" source="qsZlWb2w2ooprA0qHy_H-81" target="qsZlWb2w2ooprA0qHy_H-82">
          <mxGeometry relative="1" as="geometry">
            <mxPoint x="170" y="80" as="sourcePoint" />
            <mxPoint x="170" y="40" as="targetPoint" />
          </mxGeometry>
        </mxCell>
        <mxCell id="qsZlWb2w2ooprA0qHy_H-88" value="HABILIDADE&lt;div&gt;VAGA&lt;/div&gt;" style="shape=rhombus;perimeter=rhombusPerimeter;whiteSpace=wrap;html=1;align=center;" vertex="1" parent="1">
          <mxGeometry x="-20" y="260" width="120" height="60" as="geometry" />
        </mxCell>
        <mxCell id="qsZlWb2w2ooprA0qHy_H-89" value="HABILIDADE&lt;div&gt;CURSO&lt;/div&gt;" style="shape=rhombus;perimeter=rhombusPerimeter;whiteSpace=wrap;html=1;align=center;" vertex="1" parent="1">
          <mxGeometry x="310" y="120" width="120" height="60" as="geometry" />
        </mxCell>
        <mxCell id="qsZlWb2w2ooprA0qHy_H-90" value="" style="endArrow=none;html=1;rounded=0;exitX=1;exitY=0.5;exitDx=0;exitDy=0;" edge="1" parent="1" source="qsZlWb2w2ooprA0qHy_H-81" target="qsZlWb2w2ooprA0qHy_H-89">
          <mxGeometry relative="1" as="geometry">
            <mxPoint x="455" y="450" as="sourcePoint" />
            <mxPoint x="500" y="490" as="targetPoint" />
          </mxGeometry>
        </mxCell>
        <mxCell id="qsZlWb2w2ooprA0qHy_H-91" value="" style="endArrow=none;html=1;rounded=0;entryX=0;entryY=0.5;entryDx=0;entryDy=0;exitX=1;exitY=0.5;exitDx=0;exitDy=0;" edge="1" parent="1" target="qsZlWb2w2ooprA0qHy_H-10" source="qsZlWb2w2ooprA0qHy_H-89">
          <mxGeometry relative="1" as="geometry">
            <mxPoint x="620" y="290" as="sourcePoint" />
            <mxPoint x="585" y="337" as="targetPoint" />
          </mxGeometry>
        </mxCell>
        <mxCell id="qsZlWb2w2ooprA0qHy_H-92" value="" style="endArrow=none;html=1;rounded=0;entryX=1;entryY=0.5;entryDx=0;entryDy=0;exitX=0;exitY=0;exitDx=0;exitDy=0;" edge="1" parent="1" source="qsZlWb2w2ooprA0qHy_H-48" target="qsZlWb2w2ooprA0qHy_H-78">
          <mxGeometry relative="1" as="geometry">
            <mxPoint x="21" y="450" as="sourcePoint" />
            <mxPoint x="-25" y="417" as="targetPoint" />
          </mxGeometry>
        </mxCell>
        <mxCell id="qsZlWb2w2ooprA0qHy_H-94" value="" style="endArrow=none;html=1;rounded=0;exitX=0.5;exitY=1;exitDx=0;exitDy=0;entryX=0.5;entryY=0;entryDx=0;entryDy=0;" edge="1" parent="1" source="qsZlWb2w2ooprA0qHy_H-81" target="qsZlWb2w2ooprA0qHy_H-88">
          <mxGeometry relative="1" as="geometry">
            <mxPoint x="190" y="470" as="sourcePoint" />
            <mxPoint x="310" y="460" as="targetPoint" />
          </mxGeometry>
        </mxCell>
        <mxCell id="qsZlWb2w2ooprA0qHy_H-96" value="&lt;div&gt;(1,N)&lt;/div&gt;" style="resizable=0;html=1;whiteSpace=wrap;align=right;verticalAlign=bottom;" connectable="0" vertex="1" parent="1">
          <mxGeometry x="70" y="240" as="geometry" />
        </mxCell>
        <mxCell id="qsZlWb2w2ooprA0qHy_H-100" value="Senha" style="ellipse;whiteSpace=wrap;html=1;align=center;" vertex="1" parent="1">
          <mxGeometry x="870" y="480" width="100" height="40" as="geometry" />
        </mxCell>
        <mxCell id="qsZlWb2w2ooprA0qHy_H-101" value="" style="endArrow=none;html=1;rounded=0;exitX=0;exitY=0;exitDx=0;exitDy=0;entryX=1;entryY=0.75;entryDx=0;entryDy=0;" edge="1" parent="1" source="qsZlWb2w2ooprA0qHy_H-100" target="qsZlWb2w2ooprA0qHy_H-1">
          <mxGeometry relative="1" as="geometry">
            <mxPoint x="710" y="480" as="sourcePoint" />
            <mxPoint x="750" y="480" as="targetPoint" />
          </mxGeometry>
        </mxCell>
        <mxCell id="qsZlWb2w2ooprA0qHy_H-102" value="Forma de Pagamento" style="ellipse;whiteSpace=wrap;html=1;align=center;" vertex="1" parent="1">
          <mxGeometry x="720" y="600" width="100" height="40" as="geometry" />
        </mxCell>
        <mxCell id="qsZlWb2w2ooprA0qHy_H-103" value="" style="endArrow=none;html=1;rounded=0;exitX=0.5;exitY=0;exitDx=0;exitDy=0;entryX=0.5;entryY=1;entryDx=0;entryDy=0;" edge="1" parent="1" source="qsZlWb2w2ooprA0qHy_H-102" target="qsZlWb2w2ooprA0qHy_H-1">
          <mxGeometry relative="1" as="geometry">
            <mxPoint x="510" y="670" as="sourcePoint" />
            <mxPoint x="520" y="650" as="targetPoint" />
          </mxGeometry>
        </mxCell>
        <mxCell id="qsZlWb2w2ooprA0qHy_H-104" value="CPF" style="ellipse;whiteSpace=wrap;html=1;align=center;" vertex="1" parent="1">
          <mxGeometry x="580" y="530" width="100" height="40" as="geometry" />
        </mxCell>
        <mxCell id="qsZlWb2w2ooprA0qHy_H-105" value="" style="endArrow=none;html=1;rounded=0;exitX=1;exitY=0;exitDx=0;exitDy=0;entryX=0.099;entryY=1.099;entryDx=0;entryDy=0;entryPerimeter=0;" edge="1" parent="1" source="qsZlWb2w2ooprA0qHy_H-104" target="qsZlWb2w2ooprA0qHy_H-1">
          <mxGeometry relative="1" as="geometry">
            <mxPoint x="630" y="710" as="sourcePoint" />
            <mxPoint x="640" y="690" as="targetPoint" />
          </mxGeometry>
        </mxCell>
        <mxCell id="qsZlWb2w2ooprA0qHy_H-106" value="Acesso" style="ellipse;whiteSpace=wrap;html=1;align=center;" vertex="1" parent="1">
          <mxGeometry x="550" y="170" width="100" height="40" as="geometry" />
        </mxCell>
        <mxCell id="qsZlWb2w2ooprA0qHy_H-107" value="" style="endArrow=none;html=1;rounded=0;exitX=0.952;exitY=0.29;exitDx=0;exitDy=0;entryX=0;entryY=0.75;entryDx=0;entryDy=0;exitPerimeter=0;" edge="1" parent="1" source="qsZlWb2w2ooprA0qHy_H-106" target="qsZlWb2w2ooprA0qHy_H-10">
          <mxGeometry relative="1" as="geometry">
            <mxPoint x="-270" y="450" as="sourcePoint" />
            <mxPoint x="-370" y="430" as="targetPoint" />
          </mxGeometry>
        </mxCell>
        <mxCell id="qsZlWb2w2ooprA0qHy_H-108" value="Porte" style="ellipse;whiteSpace=wrap;html=1;align=center;" vertex="1" parent="1">
          <mxGeometry x="120" y="820" width="100" height="40" as="geometry" />
        </mxCell>
        <mxCell id="qsZlWb2w2ooprA0qHy_H-109" value="" style="endArrow=none;html=1;rounded=0;entryX=1;entryY=0.75;entryDx=0;entryDy=0;" edge="1" parent="1" source="qsZlWb2w2ooprA0qHy_H-108" target="qsZlWb2w2ooprA0qHy_H-44">
          <mxGeometry relative="1" as="geometry">
            <mxPoint x="-310" y="520" as="sourcePoint" />
            <mxPoint x="-400" y="500" as="targetPoint" />
          </mxGeometry>
        </mxCell>
        <mxCell id="qsZlWb2w2ooprA0qHy_H-110" value="Salário" style="ellipse;whiteSpace=wrap;html=1;align=center;" vertex="1" parent="1">
          <mxGeometry x="70" y="540" width="100" height="40" as="geometry" />
        </mxCell>
        <mxCell id="qsZlWb2w2ooprA0qHy_H-111" value="" style="endArrow=none;html=1;rounded=0;entryX=0.634;entryY=1.069;entryDx=0;entryDy=0;entryPerimeter=0;exitX=0.069;exitY=0.238;exitDx=0;exitDy=0;exitPerimeter=0;" edge="1" parent="1" source="qsZlWb2w2ooprA0qHy_H-110" target="qsZlWb2w2ooprA0qHy_H-48">
          <mxGeometry relative="1" as="geometry">
            <mxPoint x="80" y="540" as="sourcePoint" />
            <mxPoint x="-400" y="590" as="targetPoint" />
          </mxGeometry>
        </mxCell>
        <mxCell id="qsZlWb2w2ooprA0qHy_H-112" value="Descrição" style="ellipse;whiteSpace=wrap;html=1;align=center;" vertex="1" parent="1">
          <mxGeometry x="-150" y="770" width="100" height="40" as="geometry" />
        </mxCell>
        <mxCell id="qsZlWb2w2ooprA0qHy_H-113" value="" style="endArrow=none;html=1;rounded=0;exitX=1;exitY=0.5;exitDx=0;exitDy=0;entryX=0;entryY=0.5;entryDx=0;entryDy=0;" edge="1" parent="1" source="qsZlWb2w2ooprA0qHy_H-112" target="qsZlWb2w2ooprA0qHy_H-44">
          <mxGeometry relative="1" as="geometry">
            <mxPoint x="-310" y="440" as="sourcePoint" />
            <mxPoint x="-400" y="420" as="targetPoint" />
          </mxGeometry>
        </mxCell>
        <mxCell id="qsZlWb2w2ooprA0qHy_H-114" value="Tempo_Aberta" style="ellipse;whiteSpace=wrap;html=1;align=center;" vertex="1" parent="1">
          <mxGeometry x="-180" y="450" width="100" height="40" as="geometry" />
        </mxCell>
        <mxCell id="qsZlWb2w2ooprA0qHy_H-115" value="" style="endArrow=none;html=1;rounded=0;exitX=1;exitY=0.5;exitDx=0;exitDy=0;entryX=0;entryY=0.5;entryDx=0;entryDy=0;" edge="1" parent="1" source="qsZlWb2w2ooprA0qHy_H-114" target="qsZlWb2w2ooprA0qHy_H-48">
          <mxGeometry relative="1" as="geometry">
            <mxPoint x="-310" y="690" as="sourcePoint" />
            <mxPoint x="-400" y="670" as="targetPoint" />
          </mxGeometry>
        </mxCell>
        <mxCell id="qsZlWb2w2ooprA0qHy_H-116" value="Prazo" style="ellipse;whiteSpace=wrap;html=1;align=center;" vertex="1" parent="1">
          <mxGeometry x="-160" y="500" width="100" height="40" as="geometry" />
        </mxCell>
        <mxCell id="qsZlWb2w2ooprA0qHy_H-117" value="" style="endArrow=none;html=1;rounded=0;exitX=1;exitY=0;exitDx=0;exitDy=0;entryX=0;entryY=1;entryDx=0;entryDy=0;" edge="1" parent="1" source="qsZlWb2w2ooprA0qHy_H-116" target="qsZlWb2w2ooprA0qHy_H-48">
          <mxGeometry relative="1" as="geometry">
            <mxPoint x="-310" y="770" as="sourcePoint" />
            <mxPoint x="-400" y="750" as="targetPoint" />
          </mxGeometry>
        </mxCell>
        <mxCell id="qsZlWb2w2ooprA0qHy_H-118" value="Modalidade" style="ellipse;whiteSpace=wrap;html=1;align=center;" vertex="1" parent="1">
          <mxGeometry x="100" y="490" width="100" height="40" as="geometry" />
        </mxCell>
        <mxCell id="qsZlWb2w2ooprA0qHy_H-119" value="" style="endArrow=none;html=1;rounded=0;exitX=0.046;exitY=0.26;exitDx=0;exitDy=0;entryX=0.869;entryY=1.069;entryDx=0;entryDy=0;entryPerimeter=0;exitPerimeter=0;" edge="1" parent="1" source="qsZlWb2w2ooprA0qHy_H-118" target="qsZlWb2w2ooprA0qHy_H-48">
          <mxGeometry relative="1" as="geometry">
            <mxPoint x="-310" y="530" as="sourcePoint" />
            <mxPoint x="-400" y="510" as="targetPoint" />
          </mxGeometry>
        </mxCell>
        <mxCell id="qsZlWb2w2ooprA0qHy_H-120" value="Nível" style="ellipse;whiteSpace=wrap;html=1;align=center;" vertex="1" parent="1">
          <mxGeometry x="100" y="360" width="100" height="40" as="geometry" />
        </mxCell>
        <mxCell id="qsZlWb2w2ooprA0qHy_H-121" value="" style="endArrow=none;html=1;rounded=0;exitX=0;exitY=1;exitDx=0;exitDy=0;entryX=0.75;entryY=0;entryDx=0;entryDy=0;" edge="1" parent="1" source="qsZlWb2w2ooprA0qHy_H-120" target="qsZlWb2w2ooprA0qHy_H-48">
          <mxGeometry relative="1" as="geometry">
            <mxPoint x="-310" y="450" as="sourcePoint" />
            <mxPoint x="-400" y="430" as="targetPoint" />
          </mxGeometry>
        </mxCell>
        <mxCell id="qsZlWb2w2ooprA0qHy_H-122" value="Categoria" style="ellipse;whiteSpace=wrap;html=1;align=center;" vertex="1" parent="1">
          <mxGeometry x="650" y="210" width="100" height="40" as="geometry" />
        </mxCell>
        <mxCell id="qsZlWb2w2ooprA0qHy_H-123" value="" style="endArrow=none;html=1;rounded=0;exitX=0.25;exitY=1;exitDx=0;exitDy=0;" edge="1" parent="1" source="qsZlWb2w2ooprA0qHy_H-10" target="qsZlWb2w2ooprA0qHy_H-122">
          <mxGeometry width="50" height="50" relative="1" as="geometry">
            <mxPoint x="850" y="210" as="sourcePoint" />
            <mxPoint x="899" y="234" as="targetPoint" />
          </mxGeometry>
        </mxCell>
        <mxCell id="qsZlWb2w2ooprA0qHy_H-124" value="Sigla" style="ellipse;whiteSpace=wrap;html=1;align=center;" vertex="1" parent="1">
          <mxGeometry x="130" y="770" width="100" height="40" as="geometry" />
        </mxCell>
        <mxCell id="qsZlWb2w2ooprA0qHy_H-125" value="" style="endArrow=none;html=1;rounded=0;entryX=1;entryY=0.5;entryDx=0;entryDy=0;exitX=0;exitY=0.5;exitDx=0;exitDy=0;" edge="1" parent="1" source="qsZlWb2w2ooprA0qHy_H-124" target="qsZlWb2w2ooprA0qHy_H-44">
          <mxGeometry relative="1" as="geometry">
            <mxPoint x="189" y="799" as="sourcePoint" />
            <mxPoint x="120" y="780" as="targetPoint" />
          </mxGeometry>
        </mxCell>
        <mxCell id="qsZlWb2w2ooprA0qHy_H-129" value="" style="endArrow=none;html=1;rounded=0;exitX=0.5;exitY=1;exitDx=0;exitDy=0;entryX=0.5;entryY=0;entryDx=0;entryDy=0;" edge="1" parent="1" source="qsZlWb2w2ooprA0qHy_H-88" target="qsZlWb2w2ooprA0qHy_H-48">
          <mxGeometry relative="1" as="geometry">
            <mxPoint x="170" y="320" as="sourcePoint" />
            <mxPoint x="170" y="380" as="targetPoint" />
          </mxGeometry>
        </mxCell>
        <mxCell id="qsZlWb2w2ooprA0qHy_H-130" value="(1,N)" style="resizable=0;html=1;whiteSpace=wrap;align=right;verticalAlign=bottom;" connectable="0" vertex="1" parent="1">
          <mxGeometry x="1110" y="260" as="geometry" />
        </mxCell>
        <mxCell id="qsZlWb2w2ooprA0qHy_H-131" value="(1,1)" style="resizable=0;html=1;whiteSpace=wrap;align=right;verticalAlign=bottom;" connectable="0" vertex="1" parent="1">
          <mxGeometry x="1250" y="340" as="geometry" />
        </mxCell>
        <mxCell id="qsZlWb2w2ooprA0qHy_H-132" value="(1,N)" style="resizable=0;html=1;whiteSpace=wrap;align=right;verticalAlign=bottom;" connectable="0" vertex="1" parent="1">
          <mxGeometry x="800" y="380" as="geometry" />
        </mxCell>
        <mxCell id="qsZlWb2w2ooprA0qHy_H-133" value="(1,N)" style="resizable=0;html=1;whiteSpace=wrap;align=right;verticalAlign=bottom;" connectable="0" vertex="1" parent="1">
          <mxGeometry x="800" y="280" as="geometry" />
        </mxCell>
        <mxCell id="qsZlWb2w2ooprA0qHy_H-134" value="&lt;div&gt;(1,N)&lt;/div&gt;" style="resizable=0;html=1;whiteSpace=wrap;align=right;verticalAlign=bottom;rotation=0;" connectable="0" vertex="1" parent="1">
          <mxGeometry x="279.9972848064004" y="139.99575607937945" as="geometry">
            <mxPoint x="5.07271519359962" y="10.544243920620543" as="offset" />
          </mxGeometry>
        </mxCell>
        <mxCell id="qsZlWb2w2ooprA0qHy_H-135" value="&lt;div&gt;(0,N)&lt;/div&gt;" style="resizable=0;html=1;whiteSpace=wrap;align=right;verticalAlign=bottom;rotation=0;" connectable="0" vertex="1" parent="1">
          <mxGeometry x="479.9972848064004" y="449.9957560793795" as="geometry">
            <mxPoint x="5.07271519359962" y="10.544243920620543" as="offset" />
          </mxGeometry>
        </mxCell>
        <mxCell id="qsZlWb2w2ooprA0qHy_H-136" value="&lt;div&gt;(0,N)&lt;/div&gt;" style="resizable=0;html=1;whiteSpace=wrap;align=right;verticalAlign=bottom;rotation=0;" connectable="0" vertex="1" parent="1">
          <mxGeometry x="279.9972848064004" y="449.9957560793795" as="geometry">
            <mxPoint x="5.07271519359962" y="10.544243920620543" as="offset" />
          </mxGeometry>
        </mxCell>
        <mxCell id="qsZlWb2w2ooprA0qHy_H-137" value="&lt;div&gt;(1,N)&lt;/div&gt;" style="resizable=0;html=1;whiteSpace=wrap;align=right;verticalAlign=bottom;" connectable="0" vertex="1" parent="1">
          <mxGeometry x="70" y="350" as="geometry" />
        </mxCell>
        <mxCell id="qsZlWb2w2ooprA0qHy_H-138" value="ASSISTE" style="shape=rhombus;perimeter=rhombusPerimeter;whiteSpace=wrap;html=1;align=center;" vertex="1" parent="1">
          <mxGeometry x="1020" y="430" width="120" height="60" as="geometry" />
        </mxCell>
        <mxCell id="qsZlWb2w2ooprA0qHy_H-139" value="" style="endArrow=none;html=1;rounded=0;entryX=1;entryY=0.5;entryDx=0;entryDy=0;exitX=0;exitY=0.5;exitDx=0;exitDy=0;" edge="1" parent="1" source="qsZlWb2w2ooprA0qHy_H-138" target="qsZlWb2w2ooprA0qHy_H-1">
          <mxGeometry relative="1" as="geometry">
            <mxPoint x="1200" y="170" as="sourcePoint" />
            <mxPoint x="1000" y="170" as="targetPoint" />
          </mxGeometry>
        </mxCell>
        <mxCell id="qsZlWb2w2ooprA0qHy_H-140" value="(0,N)" style="resizable=0;html=1;whiteSpace=wrap;align=right;verticalAlign=bottom;" connectable="0" vertex="1" parent="qsZlWb2w2ooprA0qHy_H-139">
          <mxGeometry x="1" relative="1" as="geometry">
            <mxPoint x="180" as="offset" />
          </mxGeometry>
        </mxCell>
        <mxCell id="qsZlWb2w2ooprA0qHy_H-141" value="" style="endArrow=none;html=1;rounded=0;entryX=1;entryY=0.5;entryDx=0;entryDy=0;exitX=0;exitY=0.5;exitDx=0;exitDy=0;" edge="1" parent="1" source="qsZlWb2w2ooprA0qHy_H-34" target="qsZlWb2w2ooprA0qHy_H-138">
          <mxGeometry relative="1" as="geometry">
            <mxPoint x="1350" y="419.40999999999997" as="sourcePoint" />
            <mxPoint x="1150" y="419.40999999999997" as="targetPoint" />
          </mxGeometry>
        </mxCell>
        <mxCell id="qsZlWb2w2ooprA0qHy_H-142" value="(0,N)" style="resizable=0;html=1;whiteSpace=wrap;align=right;verticalAlign=bottom;" connectable="0" vertex="1" parent="qsZlWb2w2ooprA0qHy_H-141">
          <mxGeometry x="1" relative="1" as="geometry">
            <mxPoint x="51" as="offset" />
          </mxGeometry>
        </mxCell>
        <mxCell id="qsZlWb2w2ooprA0qHy_H-143" style="edgeStyle=orthogonalEdgeStyle;rounded=0;orthogonalLoop=1;jettySize=auto;html=1;exitX=0.5;exitY=1;exitDx=0;exitDy=0;" edge="1" parent="1" source="qsZlWb2w2ooprA0qHy_H-4" target="qsZlWb2w2ooprA0qHy_H-4">
          <mxGeometry relative="1" as="geometry" />
        </mxCell>
        <mxCell id="qsZlWb2w2ooprA0qHy_H-144" value="Data Conclusão" style="ellipse;whiteSpace=wrap;html=1;align=center;" vertex="1" parent="1">
          <mxGeometry x="1030" y="530" width="100" height="40" as="geometry" />
        </mxCell>
        <mxCell id="qsZlWb2w2ooprA0qHy_H-145" value="" style="endArrow=none;html=1;rounded=0;exitX=0.5;exitY=0;exitDx=0;exitDy=0;entryX=0.5;entryY=1;entryDx=0;entryDy=0;" edge="1" parent="1" source="qsZlWb2w2ooprA0qHy_H-144" target="qsZlWb2w2ooprA0qHy_H-138">
          <mxGeometry relative="1" as="geometry">
            <mxPoint x="905" y="486" as="sourcePoint" />
            <mxPoint x="840" y="470" as="targetPoint" />
          </mxGeometry>
        </mxCell>
      </root>
    </mxGraphModel>
  </diagram>
</mxfile>
